<?xml version="1.0" encoding="UTF-8"?>
<svg width="64px" height="64px" viewBox="0 0 64 64" version="1.1" xmlns="http://www.w3.org/2000/svg" xmlns:xlink="http://www.w3.org/1999/xlink">
    <title>Icon-Architecture/48/Arch_Amazon-ECS_48</title>
    <g id="Icon-Architecture/48/Arch_Amazon-ECS_48" stroke="none" stroke-width="1" fill="none" fill-rule="evenodd">
        <g id="Icon-Architecture-BG/48/Containers" fill="#C7131F">
            <rect id="Rectangle" x="0" y="0" width="64" height="64"></rect>
        </g>
        <path d="M32,13 L14,22 L14,42 L32,51 L50,42 L50,22 L32,13 Z M32,15.236 L47.528,23.5 L32,31.764 L16.472,23.5 L32,15.236 Z M16,25.236 L31,33.268 L31,48.764 L16,40.732 L16,25.236 Z M33,48.764 L33,33.268 L48,25.236 L48,40.732 L33,48.764 Z M26,28 L26,32 L28,32 L28,28 L26,28 Z M36,28 L36,32 L38,32 L38,28 L36,28 Z M31,35 L31,39 L33,39 L33,35 L31,35 Z" id="Amazon-ECS_Icon_48_Squid" fill="#FFFFFF"></path>
    </g>
</svg>
