<?xml version="1.0" encoding="UTF-8"?>
<svg width="64px" height="64px" viewBox="0 0 64 64" version="1.1" xmlns="http://www.w3.org/2000/svg" xmlns:xlink="http://www.w3.org/1999/xlink">
    <title>Icon-Architecture/48/Arch_Amazon-EKS_48</title>
    <g id="Icon-Architecture/48/Arch_Amazon-EKS_48" stroke="none" stroke-width="1" fill="none" fill-rule="evenodd">
        <g id="Icon-Architecture-BG/48/Containers" fill="#C7131F">
            <rect id="Rectangle" x="0" y="0" width="64" height="64"></rect>
        </g>
        <path d="M32,12 L14,22 L14,42 L32,52 L50,42 L50,22 L32,12 Z M32,14.472 L47.528,23 L32,31.528 L16.472,23 L32,14.472 Z M16,24.944 L30,32.732 L30,48.056 L16,40.268 L16,24.944 Z M34,48.056 L34,32.732 L48,24.944 L48,40.268 L34,48.056 Z M29,22 L27,26 L29,26 L28,29 L32,24 L30,24 L31,22 L29,22 Z M36,22 L34,22 L35,24 L33,24 L37,29 L36,26 L38,26 L36,22 Z M21,34 L21,38 L25,36 L21,34 Z M43,34 L39,36 L43,38 L43,34 Z" id="Amazon-EKS_Icon_48" fill="#FFFFFF" fill-rule="nonzero"></path>
    </g>
</svg>
