<?xml version="1.0" encoding="UTF-8"?>
<svg width="64px" height="64px" viewBox="0 0 64 64" version="1.1" xmlns="http://www.w3.org/2000/svg">
    <title>Icon-Architecture/48/Arch_AWS-IoT-Core_48</title>
    <g stroke="none" stroke-width="1" fill="none" fill-rule="evenodd">
        <g fill="#1A9C3E">
            <path d="M32,4 C16.536,4 4,16.536 4,32 C4,47.464 16.536,60 32,60 C47.464,60 60,47.464 60,32 C60,16.536 47.464,4 32,4 Z M32,8 C45.255,8 56,18.745 56,32 C56,45.255 45.255,56 32,56 C18.745,56 8,45.255 8,32 C8,18.745 18.745,8 32,8 Z M32,20 C25.373,20 20,25.373 20,32 C20,38.627 25.373,44 32,44 C38.627,44 44,38.627 44,32 C44,25.373 38.627,20 32,20 Z M32,24 C36.418,24 40,27.582 40,32 C40,36.418 36.418,40 32,40 C27.582,40 24,36.418 24,32 C24,27.582 27.582,24 32,24 Z M32,28 C29.791,28 28,29.791 28,32 C28,34.209 29.791,36 32,36 C34.209,36 36,34.209 36,32 C36,29.791 34.209,28 32,28 Z M14,30 L18,30 L18,34 L14,34 Z M46,30 L50,30 L50,34 L46,34 Z M30,14 L34,14 L34,18 L30,18 Z M30,46 L34,46 L34,50 L30,50 Z" fill-rule="nonzero"></path>
        </g>
    </g>
</svg>
