<svg width="64" height="64" viewBox="0 0 64 64" fill="none" xmlns="http://www.w3.org/2000/svg">
<g id="Icon-Architecture/48/Arch_Amazon-API-Gateway-Management_48">
<g id="Icon-Architecture-BG/48/Networking-Content-Delivery">
<rect id="Rectangle" width="64" height="64" fill="#6B2FBB"/>
</g>
<g id="Icon-Service/48/Amazon-API-Gateway-Management_48">
<path fill-rule="evenodd" clip-rule="evenodd" d="M28 43.9999H31V41.9999H28V43.9999ZM33 43.9999H36V41.9999H33V43.9999ZM28 21.9998H31V19.9998H28V21.9998ZM33 21.9998H36V19.9998H33V21.9998ZM22 12.7408L12 18.5738V46.382L22 51.382V12.7408ZM24 19.9998H26V21.9998H24V41.9999H26V43.9999H24V53C24 53.347 23.82 53.668 23.525 53.851C23.365 53.95 23.183 54 23 54C22.847 54 22.694 53.965 22.553 53.895L10.553 47.895C10.214 47.725 10 47.379 10 47V17.9998C10 17.6448 10.188 17.3148 10.496 17.1358L22.496 10.1358C22.805 9.95575 23.188 9.95475 23.498 10.1328C23.809 10.3108 24 10.6418 24 10.9998V19.9998ZM52 18.5738L42 12.7408V51.382L52 46.382V18.5738ZM54 17.9998V47C54 47.379 53.786 47.725 53.447 47.895L41.447 53.895C41.306 53.965 41.153 54 41 54C40.817 54 40.635 53.95 40.475 53.851C40.18 53.668 40 53.347 40 53V43.9999H38V41.9999H40V21.9998H38V19.9998H40V10.9998C40 10.6418 40.191 10.3108 40.502 10.1328C40.812 9.95575 41.195 9.95575 41.504 10.1358L53.504 17.1358C53.812 17.3148 54 17.6448 54 17.9998ZM32 26C32 24.896 32.896 24 34 24C35.104 24 36 24.896 36 26C36 27.104 35.104 28 34 28C32.896 28 32 27.104 32 26ZM28 26C28 24.896 28.896 24 30 24C31.104 24 32 24.896 32 26C32 27.104 31.104 28 30 28C28.896 28 28 27.104 28 26ZM30 36C30 34.896 30.896 34 32 34C33.104 34 34 34.896 34 36C34 37.104 33.104 38 32 38C30.896 38 30 37.104 30 36Z" fill="white"/>
</g>
</g>
</svg>
